<svg width="133" height="28" viewBox="0 0 133 28" fill="none" xmlns="http://www.w3.org/2000/svg">
<g clip-path="url(#clip0_849_49151)">
<path d="M10.2883 0C4.65781 0 0.0879184 4.53787 0.00374121 10.1677H0V11.2V16.8V28H5.61181V19.5179V16.8H16.8354V11.2H5.61181V10.3245C5.61181 7.7336 7.70502 5.63173 10.2883 5.63173H19.4505H20.5767V0H10.2883Z" fill="#00448D"/>
<path d="M124.152 11.2019V11.2H120.242C118.699 11.2 117.45 9.9456 117.45 8.4C117.45 6.8544 118.701 5.6 120.242 5.6H129.925V0H120.242C115.615 0 111.862 3.76133 111.862 8.4C111.862 12.992 115.54 16.7216 120.102 16.7963V16.8H120.241H124.059C125.602 16.8 126.851 18.0544 126.851 19.6C126.851 21.1456 125.6 22.4 124.059 22.4H111.862V28H124.897V27.9589C129.132 27.5371 132.439 23.9549 132.439 19.6C132.439 14.9912 128.737 11.2523 124.152 11.2019Z" fill="#00448D"/>
<path d="M108.121 0H102.509V14.8101C102.509 18.9728 99.1592 22.3477 95.027 22.3477C90.8949 22.3477 87.5446 18.9728 87.5446 14.8101V0H81.9328V14.8101C81.9328 22.0957 87.7953 28 95.027 28C102.259 28 108.121 22.0939 108.121 14.8101V0Z" fill="#00448D"/>
<path fill-rule="evenodd" clip-rule="evenodd" d="M22.4465 14C22.4465 6.26827 28.728 0 36.476 0C44.2241 0 50.5056 6.26827 50.5056 14C50.5056 21.7317 44.2241 28 36.476 28C28.728 28 22.4465 21.7317 22.4465 14ZM28.1705 14.0037C28.1705 18.6424 31.9398 22.4037 36.5883 22.4037C41.2367 22.4037 45.006 18.6443 45.006 14.0037C45.006 9.36507 41.2367 5.60373 36.5883 5.60373C31.9398 5.60373 28.1705 9.36507 28.1705 14.0037ZM40.217 13.9995C40.217 16.0614 38.542 17.7329 36.4758 17.7329C34.4096 17.7329 32.7346 16.0614 32.7346 13.9995C32.7346 11.9377 34.4096 10.2662 36.4758 10.2662C38.542 10.2662 40.217 11.9377 40.217 13.9995Z" fill="#00448D"/>
</g>
<g clip-path="url(#clip1_849_49151)">
<path d="M74.2791 20.0107C72.7601 21.4909 70.6856 22.4056 68.3941 22.4056C63.7438 22.4056 59.9746 18.6443 59.9746 14.0056C59.9746 9.36693 63.7438 5.6056 68.3941 5.6056C70.6819 5.6056 72.7564 6.5184 74.2753 7.99493L78.1924 4.088C75.654 1.5624 72.1503 0 68.2819 0C60.532 0 54.2486 6.26827 54.2486 14C54.2486 21.7317 60.532 28 68.2819 28C72.1503 28 75.6521 26.4376 78.1924 23.912L74.2791 20.0107Z" fill="#00448D"/>
</g>
<defs>
<clipPath id="clip0_849_49151">
<rect width="133" height="28" fill="white"/>
</clipPath>
<clipPath id="clip1_849_49151">
<rect width="23.9437" height="28" fill="white" transform="translate(54.2486)"/>
</clipPath>
</defs>
</svg>
